HIERARCHY
ROOT Hips
{
  OFFSET -22.6144 97.2465 46.2597
  CHANNELS 6 Xposition Yposition Zposition Zrotation Xrotation Yrotation
  JOINT RightUpLeg
  {
    OFFSET -8.9458 -8.66707 0.101652
    CHANNELS 3 Zrotation Xrotation Yrotation
    JOINT RightLeg
    {
      OFFSET 0 -44.4227 1.3727
      CHANNELS 3 Zrotation Xrotation Yrotation
      JOINT RightFoot
      {
        OFFSET 0.253549 -42.0924 -1.46059
        CHANNELS 3 Zrotation Xrotation Yrotation
        JOINT RightToes
        {
          OFFSET 0.04 -4.41509 8.4991
          CHANNELS 3 Zrotation Xrotation Yrotation
          End Site
          {
            OFFSET -0.08 -0.137448 9.77979
          }
        }
      }
    }
  }
  JOINT Spine
  {
    OFFSET 0 11.8905 0
    CHANNELS 3 Zrotation Xrotation Yrotation
    JOINT Spine1
    {
      OFFSET 0 25.6574 0.127663
      CHANNELS 3 Zrotation Xrotation Yrotation
      JOINT HEad
      {
        OFFSET 0 8.73416 0.011341
        CHANNELS 3 Zrotation Xrotation Yrotation
        End Site
        {
          OFFSET -0.29 12.7742 2.51395
        }
      }
      JOINT LeftShoulder1
      {
        OFFSET 8.99 -0.362252 -0.22
        CHANNELS 3 Zrotation Xrotation Yrotation
        JOINT LeftArm
        {
          OFFSET 10.2827 -0.00338 0.322123
          CHANNELS 3 Zrotation Xrotation Yrotation
          JOINT LeftForeArm
          {
            OFFSET 32.7669 0.099144 -1.42434
            CHANNELS 3 Zrotation Xrotation Yrotation
            JOINT LeftHand
            {
              OFFSET 27.5643 0.085362 1.02216
              CHANNELS 3 Zrotation Xrotation Yrotation
              End Site
              {
                OFFSET 16.7443 -0.6 1.50291
              }
            }
          }
        }
      }
      JOINT RightShoulder
      {
        OFFSET -8.99 -0.362252 -0.22
        CHANNELS 3 Zrotation Xrotation Yrotation
        JOINT RightArm
        {
          OFFSET -10.2827 -0.00338 0.322123
          CHANNELS 3 Zrotation Xrotation Yrotation
          JOINT RightForeArm
          {
            OFFSET -32.8971 0.099144 -1.42434
            CHANNELS 3 Zrotation Xrotation Yrotation
            JOINT RightHand
            {
              OFFSET -27.4921 0.085362 1.02216
              CHANNELS 3 Zrotation Xrotation Yrotation
              End Site
              {
                OFFSET -16.6312 -0.6 1.50291
              }
            }
          }
        }
      }
    }
  }
  JOINT LeftUpLeg
  {
    OFFSET 8.9458 -8.66707 0.101652
    CHANNELS 3 Zrotation Xrotation Yrotation
    JOINT LeftLeg
    {
      OFFSET 0 -44.4227 1.3727
      CHANNELS 3 Zrotation Xrotation Yrotation
      JOINT LeftFoot
      {
        OFFSET -0.253549 -42.0924 -1.46059
        CHANNELS 3 Zrotation Xrotation Yrotation
        JOINT LeftToes
        {
          OFFSET -0.04 -4.41509 8.4991
          CHANNELS 3 Zrotation Xrotation Yrotation
          End Site
          {
            OFFSET 0.08 -0.047448 9.77979
          }
        }
      }
    }
  }
}
MOTION
Frames:	17
Frame Time:	0.0166667
0.00000 96.00000 0.00000 0.00000 0.00000 0.00000 0.00000 0.00000 0.00000 0.00000 0.00000 0.00000 0.00000 0.00000 0.00000 0.00000 0.00000 0.00000 0.00000 0.00000 0.00000 0.00000 0.00000 0.00000 0.00000 0.00000 0.00000 0.00000 0.00000 0.00000 0.00000 0.00000 0.00000 0.00000 0.00000 0.00000 0.00000 0.00000 0.00000 0.00000 0.00000 0.00000 0.00000 0.00000 0.00000 0.00000 0.00000 0.00000 0.00000 0.00000 0.00000 0.00000 0.00000 0.00000 0.00000 0.00000 0.00000 0.00000 0.00000 0.00000 0.00000 0.00000 0.00000 
-53.836 98.6681 16.3614 -1.26169 -2.36828 -171.484 -23.4555 -27.7175 1.93711 6.6388 29.6282 -7.22365 3.37411 10.3429 -0.824162 0.0462048 0.000533403 0.662642 1.36035 7.80534 -2.92894 -1.14409 15.6033 -5.38931 9.33525 -19.6147 -20.4668 4.96962e-017 9.54166e-015 -0 -77.1158 -11.857 -36.0725 -43.7014 59.6353 -79.8513 7.21815 19.4659 -2.26649 25.4017 -3.33603 -14.5431 84.503 -27.5677 45.0137 -13.7667 57.3842 140.665 -25.2837 18.5071 2.0732 27.3237 -10.8863 -13.6375 -11.084 25.9132 14.1657 -8.46224 11.1224 1.3023 -1.32437e-009 1.5601e-007 -4.8699e-009 
-52.7167 99.1119 16.523 -1.63254 -2.64922 -171.537 -23.4112 -28.0167 0.824601 6.46754 29.5916 -6.57712 3.11443 9.76073 -0.749772 0.0462048 0.000533403 0.662642 1.47913 7.89852 -2.67103 -0.964588 15.7729 -4.90027 9.14369 -20.0553 -21.1469 9.93923e-017 -3.18055e-015 -0 -77.6485 -12.8597 -34.1333 -44.1908 59.6752 -79.3971 7.21815 19.4659 -2.26649 24.9563 -3.1795 -14.1615 83.5867 -26.375 45.7835 -13.3003 57.3813 138.191 -25.203 18.4669 2.29006 27.1661 -11.5715 -13.3593 -13.6093 27.2653 18.249 -8.02221 7.86887 0.923983 -1.32437e-009 1.5601e-007 -4.86989e-009 
-51.9427 99.3387 16.8683 -1.9324 -2.59753 -171.565 -23.5809 -28.3026 -0.0853793 6.54573 30.1985 -6.08921 3.28469 8.1283 -0.65525 0.0462048 0.000533403 0.662642 1.69477 8.0003 -2.49755 -0.759358 15.9419 -4.56708 8.99725 -20.1995 -21.6457 9.93923e-017 6.36111e-015 -0 -78.3079 -14.0019 -31.8894 -44.7407 59.774 -78.9909 7.21815 19.4659 -2.26649 24.5812 -3.09602 -14.0115 82.4774 -25.2924 46.3246 -12.7667 57.3293 135.434 -25.0843 18.4237 2.53385 27.0065 -12.5427 -12.531 -16.8408 29.8076 21.6559 -7.88766 5.22552 0.505495 -1.32437e-009 1.5601e-007 -4.86989e-009 
-51.4774 99.3242 17.3715 -2.11796 -2.21275 -171.504 -23.8835 -28.5444 -0.755053 6.84867 31.4178 -5.88438 3.82604 5.64382 -0.520691 0.0462048 0.000533403 0.662642 2.01514 8.11392 -2.41093 -0.505992 16.1159 -4.39467 8.88004 -20.1214 -22.0009 1.98785e-016 0 -0 -79.0062 -15.1632 -29.5476 -45.3317 59.9402 -78.6746 7.21815 19.4659 -2.26649 24.3399 -3.09598 -14.1157 81.2148 -24.3567 46.5923 -12.3422 57.1652 132.798 -24.9167 18.3975 2.71107 26.7816 -13.679 -11.2105 -20.4115 33.321 24.1448 -7.90582 3.71434 0.0930239 -1.32437e-009 1.5601e-007 -4.86989e-009 
-51.2642 99.0539 18.0075 -2.16244 -1.49875 -171.332 -24.2138 -28.7191 -1.12691 7.34036 33.1376 -6.05988 4.67686 2.6801 -0.320593 0.0462048 0.000533403 0.662642 2.42404 8.24098 -2.39753 -0.19653 16.2981 -4.35271 8.77419 -19.893 -22.2565 -1.98785e-016 0 -3.97569e-016 -79.6726 -16.2053 -27.3357 -45.9255 60.1658 -78.4783 7.21815 19.4659 -2.26649 24.2627 -3.17232 -14.4387 79.841 -23.6604 46.5423 -12.1884 56.8935 130.65 -24.7371 18.4002 2.75203 26.4203 -14.8534 -9.64535 -24.0579 37.5948 25.8694 -7.94052 3.468 -0.271091 -1.32437e-009 1.5601e-007 -4.8699e-009 
-51.2393 98.5275 18.7569 -2.05585 -0.468367 -171.065 -24.4647 -28.8274 -1.15336 7.98428 35.2073 -6.64302 5.76676 -0.298291 -0.0415682 0.0462048 0.000533403 0.662642 2.89618 8.38134 -2.43631 0.161754 16.4886 -4.39501 8.67486 -19.5703 -22.4423 0 0 -0 -80.2635 -17.0162 -25.4643 -46.4765 60.4323 -78.4155 7.21815 19.4659 -2.26649 24.3499 -3.30753 -14.9104 78.4048 -23.3163 46.1401 -12.351 56.5888 129.193 -24.6321 18.4237 2.66744 25.8828 -15.9254 -8.18632 -27.7524 42.3282 27.278 -7.92871 4.30223 -0.56238 -1.32437e-009 1.5601e-007 -4.86989e-009 
-51.3361 97.7591 19.6033 -1.80596 0.855748 -170.732 -24.5526 -28.8969 -0.834238 8.74712 37.4931 -7.57836 6.99612 -2.83697 0.304145 0.0462048 0.000533403 0.662642 3.38683 8.53146 -2.50963 0.548389 16.683 -4.48195 8.59685 -19.1853 -22.5653 1.98785e-016 0 -3.97569e-016 -80.7602 -17.5424 -24.0962 -46.9478 60.721 -78.4847 7.21815 19.4659 -2.26649 24.585 -3.48346 -15.4605 76.9521 -23.4055 45.3697 -12.7223 56.3629 128.405 -24.7072 18.441 2.55943 25.1699 -16.7527 -7.132 -31.6594 47.1507 28.9034 -7.87271 5.88359 -0.777382 -1.32437e-009 1.5601e-007 -4.86989e-009 
-51.4944 96.7804 20.5322 -1.43312 2.43759 -170.362 -24.4368 -28.9541 -0.238896 9.59459 39.8657 -8.74326 8.23406 -4.55703 0.673819 0.0462048 0.000533403 0.662642 3.84394 8.68347 -2.60845 0.938768 16.871 -4.59647 8.57004 -18.7461 -22.6122 3.97569e-016 0 -3.97569e-016 -81.1607 -17.7978 -23.3321 -47.325 61.0194 -78.6664 7.21815 19.4659 -2.26649 24.9478 -3.68984 -16.0504 75.5167 -23.9432 44.2444 -13.0927 56.3244 128.108 -25.0378 18.4175 2.57768 24.3151 -17.2157 -6.6158 -35.9772 51.7106 31.1899 -7.80667 7.86451 -0.926417 -1.32438e-009 1.5601e-007 -4.86989e-009 
-51.667 95.6335 21.5272 -0.965911 4.22734 -169.961 -24.1308 -29.0069 0.497331 10.4864 42.2048 -9.98364 9.34731 -5.20772 1.00493 0.0462048 0.000533403 0.662642 4.22126 8.82529 -2.73382 1.31335 17.0368 -4.74889 8.62738 -18.2474 -22.5617 -5.96354e-016 -3.18055e-015 3.97569e-016 -81.4769 -17.8498 -23.2125 -47.6212 61.3248 -78.9272 7.21815 19.4659 -2.26649 25.4199 -3.92757 -16.6828 74.1188 -24.8788 42.811 -13.2496 56.5414 128.071 -25.6261 18.3264 2.84258 23.3847 -17.2398 -6.60615 -40.8048 55.7458 34.4198 -7.75166 9.93557 -1.03172 -1.32437e-009 1.5601e-007 -4.8699e-009 
-51.823 94.3597 22.5709 -0.437145 6.16499 -169.509 -23.6976 -29.0403 1.20272 11.3746 44.4053 -11.1548 10.244 -4.69203 1.23836 0.0462048 0.000533403 0.662642 4.4928 8.94343 -2.89458 1.66246 17.1631 -4.97003 8.79226 -17.6861 -22.3975 2.20695e-032 -3.18055e-015 3.97569e-016 -81.7347 -17.7937 -23.7316 -47.8726 61.6399 -79.2222 7.21815 19.4659 -2.26649 25.9829 -4.20588 -17.3904 72.7708 -26.124 41.1451 -13.0702 57.0183 128.134 -26.3893 18.1624 3.37718 22.4794 -16.8039 -6.98746 -46.1027 59.0905 38.7123 -7.66338 11.8397 -1.13552 -1.32437e-009 1.5601e-007 -4.86989e-009 
-51.9464 92.9928 23.6468 0.116183 8.18541 -168.972 -23.2341 -29.0229 1.71446 12.2117 46.3843 -12.1568 10.9006 -3.06539 1.33991 0.0462048 0.000533403 0.662642 4.65834 9.02768 -3.10291 1.98378 17.237 -5.29679 9.07057 -17.0769 -22.1193 -5.96354e-016 6.36111e-015 7.95139e-016 -81.9752 -17.7259 -24.8559 -48.1262 61.9676 -79.4967 7.21815 19.4659 -2.26649 26.6133 -4.53462 -18.2087 71.4903 -27.5942 39.3396 -12.5668 57.6927 128.265 -27.1934 17.9483 4.08816 21.7202 -15.94 -7.649 -51.7176 61.6445 44.0308 -7.4112 13.3674 -1.30609 -1.32436e-009 1.5601e-007 -4.8699e-009 
-52.0284 91.5566 24.7351 0.650219 10.2237 -168.313 -22.8451 -28.9304 1.92223 12.968 48.1109 -12.9519 11.3512 -0.531542 1.30899 0.0462048 0.000533403 0.662642 4.7349 9.07558 -3.36296 2.27454 17.2568 -5.75589 9.45076 -16.4591 -21.745 2.20695e-032 3.18055e-015 -3.97569e-016 -82.2521 -17.7232 -26.5374 -48.4282 62.3066 -79.696 7.21815 19.4659 -2.26649 27.28 -4.91562 -19.1479 70.3095 -29.2463 37.4882 -11.8767 58.464 128.565 -27.9143 17.7284 4.80729 21.2193 -14.7238 -8.53243 -57.4276 63.3585 50.1706 -6.82616 14.3209 -1.6234 -1.32437e-009 1.5601e-007 -4.8699e-009 
-52.0743 90.0849 25.8285 1.11688 12.2197 -167.505 -22.6259 -28.7291 1.79776 13.6474 49.5462 -13.5748 11.6529 2.62398 1.16995 0.0462048 0.000533403 0.662642 4.74733 9.09265 -3.6768 2.52285 17.2348 -6.35185 9.90985 -15.8927 -21.3067 -7.95139e-016 0 -0 -82.6237 -17.8302 -28.7191 -48.815 62.652 -79.7733 7.21815 19.4659 -2.26649 27.9459 -5.33606 -20.1747 69.2805 -31.0982 35.6745 -11.201 59.2378 129.205 -28.4909 17.548 5.3712 21.0357 -13.2723 -9.61847 -62.9433 64.2353 56.7155 -5.78272 14.5133 -2.14051 -1.32437e-009 1.5601e-007 -4.8699e-009 
-52.099 88.6272 26.9327 1.4671 14.1189 -166.546 -22.6435 -28.394 1.39726 14.2879 50.6516 -14.1099 11.8483 6.07117 0.961993 0.0462048 0.000533403 0.662642 4.71664 9.09253 -4.04218 2.70563 17.1954 -7.0633 10.4215 -15.4408 -20.8438 1.98785e-016 3.18055e-015 1.19271e-015 -83.1445 -18.0568 -31.3317 -49.3096 62.9962 -79.6938 7.21815 19.4659 -2.26649 28.5715 -5.767 -21.2129 68.4706 -33.2251 33.9639 -10.7109 59.9635 130.323 -28.9369 17.4317 5.69375 21.1471 -11.7346 -10.88 -67.9618 64.3731 63.0834 -4.3032 13.7905 -2.8356 -1.32437e-009 1.5601e-007 -4.8699e-009 
-52.1187 87.2358 28.0556 1.65833 15.8709 -165.468 -22.9191 -27.9402 0.836338 14.9446 51.4352 -14.6436 11.949 9.45034 0.734855 0.0462048 0.000533403 0.662642 4.65299 9.09208 -4.44245 2.79435 17.1681 -7.84823 10.962 -15.1478 -20.3936 -9.93923e-017 1.59028e-015 -7.95139e-016 -83.858 -18.3814 -34.2843 -49.9191 63.3335 -79.4408 7.21815 19.4659 -2.26649 29.1186 -6.16771 -22.1602 67.949 -35.7327 32.4056 -10.4709 60.6488 131.932 -29.3181 17.3728 5.79519 21.4477 -10.2684 -12.2378 -72.2884 63.9961 68.6888 -2.60069 12.1045 -3.59456 -1.32437e-009 1.5601e-007 -4.86989e-009 
-52.1524 85.9686 29.2108 1.66519 17.4297 -164.334 -23.4343 -27.4137 0.25085 15.6549 51.9232 -15.2218 11.9511 12.4194 0.541429 0.0462048 0.000533403 0.662642 4.55818 9.10486 -4.855 2.76417 17.1767 -8.65539 11.5125 -15.0204 -19.9844 -0 -3.18055e-015 -0 -84.7908 -18.7599 -37.4566 -50.6356 63.6615 -79.0196 7.21815 19.4659 -2.26649 29.5525 -6.49454 -22.9149 67.7704 -38.716 31.0398 -10.4246 61.3512 133.904 -29.7166 17.3408 5.77931 21.7714 -9.01853 -13.5395 -75.8736 63.4247 73.0893 -0.970212 9.62786 -4.26175 -1.32437e-009 1.5601e-007 -4.86989e-009 
